<svg width="336" height="140" viewBox="0 0 336 140" fill="none" xmlns="http://www.w3.org/2000/svg">
<rect width="336" height="140" fill="#1E1E1E"/>
<path d="M-468 -98C-468 -99.1046 -467.105 -100 -466 -100H434C435.105 -100 436 -99.1046 436 -98V986C436 987.105 435.105 988 434 988H-466C-467.105 988 -468 987.105 -468 986V-98Z" fill="#404040"/>
<path d="M-466 -99H434V-101H-466V-99ZM435 -98V986H437V-98H435ZM434 987H-466V989H434V987ZM-467 986V-98H-469V986H-467ZM-466 987C-466.552 987 -467 986.552 -467 986H-469C-469 987.657 -467.657 989 -466 989V987ZM435 986C435 986.552 434.552 987 434 987V989C435.657 989 437 987.657 437 986H435ZM434 -99C434.552 -99 435 -98.5523 435 -98H437C437 -99.6569 435.657 -101 434 -101V-99ZM-466 -101C-467.657 -101 -469 -99.6569 -469 -98H-467C-467 -98.5523 -466.552 -99 -466 -99V-101Z" fill="white" fill-opacity="0.1"/>
<g clip-path="url(#clip0_1_2)">
<rect width="336" height="140" rx="4" fill="#121214"/>
<path fill-rule="evenodd" clip-rule="evenodd" d="M58 -4H-49C-50.6569 -4 -52 -2.65686 -52 -1V62C-52 63.6569 -50.6569 65 -49 65H58C59.6569 65 61 63.6569 61 62V-1C61 -2.65686 59.6569 -4 58 -4ZM-49 -5C-51.2091 -5 -53 -3.20914 -53 -1V62C-53 64.2091 -51.2091 66 -49 66H58C60.2091 66 62 64.2091 62 62V-1C62 -3.20914 60.2091 -5 58 -5H-49ZM433 -4H326C324.343 -4 323 -2.65686 323 -1V62C323 63.6569 324.343 65 326 65H433C434.657 65 436 63.6569 436 62V-1C436 -2.65686 434.657 -4 433 -4ZM326 -5C323.791 -5 322 -3.20914 322 -1V62C322 64.2091 323.791 66 326 66H433C435.209 66 437 64.2091 437 62V-1C437 -3.20914 435.209 -5 433 -5H326ZM297.5 10.6753V-3H296.5V10.4701L282.791 24.3571H229H228.793L228.646 24.5036L199.004 54.1465L199.711 54.8535L229.207 25.3571H283H283.209L283.356 25.2084L297.356 11.0266L297.5 10.8805V10.6753ZM81.1738 124.925L117.5 88.5987V140H118.5V87.5987L131.099 75H133C134.657 75 136 76.3431 136 78V141C136 142.657 134.657 144 133 144H26C24.3431 144 23 142.657 23 141V125.071H80.8202H81.0273L81.1738 124.925ZM11 124.071H-4.73034H-4.93745L-5.08391 124.218L-22.3644 141.5H-38V142.5H-22.1573H-21.9502L-21.8037 142.354L-4.52322 125.071H11V141C11 142.657 9.65685 144 8 144H-99C-100.657 144 -102 142.657 -102 141V78C-102 76.3431 -100.657 75 -99 75H8C9.65685 75 11 76.3431 11 78V124.071ZM12 124.071V78C12 75.7909 10.2091 74 8 74H-99C-101.209 74 -103 75.7909 -103 78V141C-103 143.209 -101.209 145 -99 145H8C10.2091 145 12 143.209 12 141V125.071H22V141C22 143.209 23.7909 145 26 145H133C135.209 145 137 143.209 137 141V78C137 75.7909 135.209 74 133 74H132.099L135.354 70.7452L134.646 70.0381L130.685 74H118.5V66H183C185.209 66 187 64.2091 187 62V-1C187 -3.20914 185.209 -5 183 -5H76C73.7909 -5 72 -3.20914 72 -1V62C72 64.2091 73.7909 66 76 66H117.5V74H26C23.7909 74 22 75.7909 22 78V124.071H12ZM23 124.071V78C23 76.3431 24.3431 75 26 75H117.5V87.1845L80.6131 124.071H23ZM118.5 75V86.1845L129.685 75H118.5ZM183 65H118.5V-3H117.5V65H76C74.3431 65 73 63.6569 73 62V-1C73 -2.65686 74.3431 -4 76 -4H183C184.657 -4 186 -2.65686 186 -1V62C186 63.6569 184.657 65 183 65ZM202.293 75L242.5 115.207V140.5H243.5V115V114.793L243.354 114.646L203.707 75H258C259.657 75 261 76.3431 261 78V141C261 142.657 259.657 144 258 144H151C149.343 144 148 142.657 148 141V78C148 76.3431 149.343 75 151 75H202.293ZM201.293 74H151C148.791 74 147 75.7909 147 78V141C147 143.209 148.791 145 151 145H258C260.209 145 262 143.209 262 141V78C262 75.7909 260.209 74 258 74H202.707L200.854 72.1464L200.146 72.8536L201.293 74ZM276 75H383C384.657 75 386 76.3431 386 78V141C386 142.657 384.657 144 383 144H276C274.343 144 273 142.657 273 141V78C273 76.3431 274.343 75 276 75ZM272 78C272 75.7909 273.791 74 276 74H383C385.209 74 387 75.7909 387 78V141C387 143.209 385.209 145 383 145H276C273.791 145 272 143.209 272 141V78ZM308 -4H201C199.343 -4 198 -2.65686 198 -1V62C198 63.6569 199.343 65 201 65H308C309.657 65 311 63.6569 311 62V-1C311 -2.65686 309.657 -4 308 -4ZM201 -5C198.791 -5 197 -3.20914 197 -1V62C197 64.2091 198.791 66 201 66H308C310.209 66 312 64.2091 312 62V-1C312 -3.20914 310.209 -5 308 -5H201Z" fill="url(#paint0_radial_1_2)" fill-opacity="0.3"/>
<g filter="url(#filter0_f_1_2)">
<circle cx="113" cy="70" r="26" fill="#E44D26"/>
</g>
<g filter="url(#filter1_f_1_2)">
<circle cx="218" cy="70" r="26" fill="#E5D130"/>
</g>
<g filter="url(#filter2_f_1_2)">
<circle cx="168" cy="70" r="26" fill="#42A5F5"/>
</g>
<path d="M136.45 46.4643L136.45 46.4642C142.018 38.3172 153.052 34.0049 169.676 34C169.676 34 169.677 34 169.677 34L169.705 34C186.355 34 197.418 38.3116 203.012 46.4601C207.752 53.3642 208.395 62.2117 208.395 69.3436C208.395 76.4754 207.751 85.3239 203.011 92.228C197.417 100.377 186.359 104.687 169.709 104.687H169.678C169.678 104.687 169.677 104.687 169.677 104.687C153.053 104.681 142.019 100.368 136.45 92.2219C131.74 85.3331 131.101 76.4814 131.101 69.3436C131.101 62.2058 131.74 53.3531 136.45 46.4643Z" fill="#09090A" stroke="url(#paint1_linear_1_2)" stroke-width="2"/>
<g opacity="0.9">
<rect x="167.2" y="63.5" width="27.75" height="27.75" rx="13.875" fill="#42A5F5"/>
<path d="M176.381 71.1925L175.945 73.4876H185.07L184.775 74.9719H175.656L175.213 77.2602H184.338L183.828 79.8783L180.148 81.1221L176.959 79.8783L177.18 78.7514H174.938L174.407 81.5L179.678 83.5615L185.755 81.5L186.561 77.3564L186.722 76.5249L187.756 71.1925H176.381Z" fill="white"/>
</g>
<g opacity="0.9">
<rect x="145" y="63.5" width="27.75" height="27.75" rx="13.875" fill="#E44D26"/>
<g clip-path="url(#clip1_1_2)">
<rect width="12.95" height="14.8" transform="translate(152.4 69.9747)" fill="white"/>
<path d="M158.875 84.1808L163.212 82.9855L163.798 76.5328H156.084L155.892 74.3855H163.99L164.203 72.2805H153.548L154.144 78.6379H161.486L161.241 81.367L158.875 82.0017L156.51 81.367L156.361 79.6111H154.23L154.539 82.9855L158.875 84.1808ZM150.426 68.7791H167.325L165.801 85.9156L158.875 87.8197L151.949 85.9156L150.426 68.7791Z" fill="white"/>
<path d="M158.875 84.1808L163.212 82.9855L163.798 76.5328H156.084L155.892 74.3855H163.99L164.203 72.2805H153.548L154.144 78.6379H161.486L161.241 81.367L158.875 82.0017L156.51 81.367L156.361 79.6111H154.23L154.539 82.9855L158.875 84.1808ZM150.426 68.7791H167.325L165.801 85.9156L158.875 87.8197L151.949 85.9156L150.426 68.7791Z" fill="#E44D26"/>
</g>
</g>
<g opacity="0.9">
<rect x="156.101" y="45" width="27.75" height="27.75" rx="13.875" fill="#E5D130"/>
<path d="M162.564 62.1518L164.285 61.1274C164.617 61.7066 164.919 62.1965 165.644 62.1965C166.338 62.1965 166.776 61.9305 166.776 60.8896V53.8206H168.889V60.9189C168.889 63.072 167.606 64.0523 165.735 64.0523C165.073 64.0875 164.416 63.9248 163.85 63.5854C163.284 63.2461 162.836 62.7461 162.565 62.1513L162.564 62.1518ZM170.038 61.9284L171.759 60.9481C171.95 61.33 172.247 61.651 172.615 61.8743C172.984 62.0976 173.409 62.2141 173.842 62.2103C174.718 62.2103 175.275 61.7795 175.275 61.1853C175.275 60.4726 174.702 60.2199 173.736 59.8024L173.209 59.5822C171.685 58.9439 170.673 58.1418 170.673 56.4487C170.673 54.8892 171.881 53.7015 173.768 53.7015C174.379 53.6579 174.99 53.7923 175.524 54.0881C176.058 54.3839 176.492 54.8279 176.771 55.3647L175.126 56.4046C175.018 56.1381 174.83 55.9102 174.587 55.7511C174.345 55.592 174.059 55.5092 173.767 55.5137C173.64 55.501 173.512 55.5146 173.39 55.5535C173.269 55.5924 173.157 55.6558 173.062 55.7396C172.966 55.8234 172.89 55.9259 172.837 56.0404C172.785 56.1549 172.757 56.2789 172.756 56.4046C172.756 57.0285 173.148 57.2806 174.053 57.6668L174.581 57.8897C176.378 58.6471 177.389 59.4194 177.389 61.1566C177.389 63.0279 175.894 64.0528 173.887 64.0528C171.925 64.0528 170.657 63.1321 170.038 61.9289" fill="#09090A"/>
</g>
</g>
<defs>
<filter id="filter0_f_1_2" x="7" y="-36" width="212" height="212" filterUnits="userSpaceOnUse" color-interpolation-filters="sRGB">
<feFlood flood-opacity="0" result="BackgroundImageFix"/>
<feBlend mode="normal" in="SourceGraphic" in2="BackgroundImageFix" result="shape"/>
<feGaussianBlur stdDeviation="40" result="effect1_foregroundBlur_1_2"/>
</filter>
<filter id="filter1_f_1_2" x="112" y="-36" width="212" height="212" filterUnits="userSpaceOnUse" color-interpolation-filters="sRGB">
<feFlood flood-opacity="0" result="BackgroundImageFix"/>
<feBlend mode="normal" in="SourceGraphic" in2="BackgroundImageFix" result="shape"/>
<feGaussianBlur stdDeviation="40" result="effect1_foregroundBlur_1_2"/>
</filter>
<filter id="filter2_f_1_2" x="62" y="-36" width="212" height="212" filterUnits="userSpaceOnUse" color-interpolation-filters="sRGB">
<feFlood flood-opacity="0" result="BackgroundImageFix"/>
<feBlend mode="normal" in="SourceGraphic" in2="BackgroundImageFix" result="shape"/>
<feGaussianBlur stdDeviation="40" result="effect1_foregroundBlur_1_2"/>
</filter>
<radialGradient id="paint0_radial_1_2" cx="0" cy="0" r="1" gradientUnits="userSpaceOnUse" gradientTransform="translate(167 70) rotate(90) scale(68.5 246.6)">
<stop stop-color="#DEE0FC"/>
<stop offset="1" stop-color="#DEE0FC" stop-opacity="0"/>
</radialGradient>
<linearGradient id="paint1_linear_1_2" x1="134" y1="50" x2="209" y2="79" gradientUnits="userSpaceOnUse">
<stop stop-color="#CE4623"/>
<stop offset="0.523234" stop-color="#3C95DD"/>
<stop offset="1" stop-color="#CFBD2C"/>
</linearGradient>
<clipPath id="clip0_1_2">
<rect width="336" height="140" rx="4" fill="white"/>
</clipPath>
<clipPath id="clip1_1_2">
<rect width="12.95" height="14.8" fill="white" transform="translate(152.4 69.9747)"/>
</clipPath>
</defs>
</svg>
