<svg width="52" height="49" viewBox="0 0 52 49" fill="none" xmlns="http://www.w3.org/2000/svg">
<mask id="path-1-inside-1_939_1004" fill="white">
<path d="M48.2452 9.3203C44.4352 3.77102 36.9851 0.956543 26.1055 0.956543H26.0872C15.224 0.95968 7.79215 3.77478 3.99922 9.32405C0.823506 13.9693 0.416443 19.8912 0.416443 24.5308C0.416443 29.1703 0.823506 35.0916 3.99922 39.7368C7.79278 45.2855 15.2246 48.1012 26.0878 48.105H26.1087C36.9876 48.105 44.4346 45.2911 48.2446 39.7419C51.4405 35.0866 51.8507 29.1672 51.8507 24.5308C51.8507 19.8943 51.4411 13.9755 48.2452 9.3203Z"/>
</mask>
<path d="M48.2452 9.3203C44.4352 3.77102 36.9851 0.956543 26.1055 0.956543H26.0872C15.224 0.95968 7.79215 3.77478 3.99922 9.32405C0.823506 13.9693 0.416443 19.8912 0.416443 24.5308C0.416443 29.1703 0.823506 35.0916 3.99922 39.7368C7.79278 45.2855 15.2246 48.1012 26.0878 48.105H26.1087C36.9876 48.105 44.4346 45.2911 48.2446 39.7419C51.4405 35.0866 51.8507 29.1672 51.8507 24.5308C51.8507 19.8943 51.4411 13.9755 48.2452 9.3203Z" fill="#09090A" stroke="url(#paint0_linear_939_1004)" stroke-width="2.59459" mask="url(#path-1-inside-1_939_1004)"/>
<g opacity="0.9">
<rect x="24.4808" y="20.7402" width="18" height="18" rx="9" fill="#42A5F5"/>
<path d="M30.4361 25.73L30.153 27.2187H36.0721L35.8805 28.1815H29.9657L29.6782 29.6658H35.5974L35.2663 31.364L32.8795 32.1708L30.8107 31.364L30.9544 30.633H29.4997L29.1556 32.4159L32.5746 33.7531L36.5164 32.4159L37.039 29.7282L37.1436 29.1888L37.8143 25.73H30.4361Z" fill="white"/>
</g>
<g opacity="0.9">
<rect x="10.0809" y="20.7402" width="18" height="18" rx="9" fill="#E44D26"/>
<g clip-path="url(#clip0_939_1004)">
<rect width="8.4" height="9.6" transform="translate(14.8812 24.9404)" fill="white"/>
<path d="M19.0812 34.1548L21.8941 33.3795L22.2742 29.194H17.2704L17.146 27.8011H22.3986L22.5369 26.4357H15.6255L16.0126 30.5594H20.7745L20.6155 32.3297L19.0812 32.7414L17.5469 32.3297L17.4501 31.1907H16.0679L16.2683 33.3795L19.0812 34.1548ZM13.6005 24.1646H24.5619L23.5736 35.2801L19.0812 36.5152L14.5888 35.2801L13.6005 24.1646Z" fill="white"/>
<path d="M19.0812 34.1548L21.8941 33.3795L22.2742 29.194H17.2704L17.146 27.8011H22.3986L22.5369 26.4357H15.6255L16.0126 30.5594H20.7745L20.6155 32.3297L19.0812 32.7414L17.5469 32.3297L17.4501 31.1907H16.0679L16.2683 33.3795L19.0812 34.1548ZM13.6005 24.1646H24.5619L23.5736 35.2801L19.0812 36.5152L14.5888 35.2801L13.6005 24.1646Z" fill="#E44D26"/>
</g>
</g>
<g opacity="0.9">
<rect x="17.2812" y="8.74023" width="18" height="18" rx="9" fill="#E5D130"/>
<path d="M21.4742 19.8659L22.5905 19.2014C22.8058 19.5771 23.0018 19.8949 23.4718 19.8949C23.922 19.8949 24.2061 19.7224 24.2061 19.0472V14.4619H25.5769V19.0662C25.5769 20.4628 24.7447 21.0987 23.5307 21.0987C23.1015 21.1215 22.6753 21.0159 22.3083 20.7958C21.9412 20.5757 21.6506 20.2514 21.4746 19.8656L21.4742 19.8659ZM26.3218 19.721L27.438 19.0851C27.5621 19.3329 27.7548 19.5411 27.9938 19.6859C28.2328 19.8308 28.5085 19.9063 28.7892 19.9039C29.3573 19.9039 29.7192 19.6244 29.7192 19.239C29.7192 18.7767 29.3471 18.6128 28.7205 18.342L28.3789 18.1991C27.39 17.7851 26.7338 17.2648 26.7338 16.1666C26.7338 15.155 27.5173 14.3846 28.7412 14.3846C29.1377 14.3563 29.534 14.4436 29.8805 14.6354C30.227 14.8273 30.5084 15.1153 30.6896 15.4635L29.6221 16.138C29.552 15.9651 29.4302 15.8173 29.2728 15.7141C29.1155 15.6109 28.9299 15.5572 28.7408 15.5601C28.6584 15.5519 28.5751 15.5607 28.4963 15.5859C28.4175 15.6111 28.3449 15.6523 28.2832 15.7066C28.2214 15.761 28.1719 15.8275 28.1377 15.9017C28.1035 15.976 28.0855 16.0565 28.0847 16.138C28.0847 16.5427 28.3393 16.7062 28.9263 16.9567L29.2689 17.1013C30.4343 17.5926 31.09 18.0936 31.09 19.2204C31.09 20.4342 30.1208 21.099 28.8187 21.099C27.5457 21.099 26.7233 20.5018 26.3218 19.7214" fill="#09090A"/>
</g>
<defs>
<linearGradient id="paint0_linear_939_1004" x1="2.94579" y1="11.9836" x2="51.5944" y2="30.7944" gradientUnits="userSpaceOnUse">
<stop stop-color="#CE4623"/>
<stop offset="0.523234" stop-color="#3C95DD"/>
<stop offset="1" stop-color="#CFBD2C"/>
</linearGradient>
<clipPath id="clip0_939_1004">
<rect width="8.4" height="9.6" fill="white" transform="translate(14.8812 24.9404)"/>
</clipPath>
</defs>
</svg>
